<svg xmlns="http://www.w3.org/2000/svg" xml:space="preserve" width="100mm" height="100mm" viewBox="0 0 100 100"><path d="M0 0h100v100H0z" style="fill:#fff;stroke-width:0"/><path d="M1.136 69.213c-.63-.225-1.07-.82-1.13-1.53-.032-.364.214-1.284 4.804-17.96 2.661-9.667 4.884-17.7 4.94-17.85.135-.366.536-.79.913-.967l.308-.144h87.687l.387.2c.697.36 1.06 1.061.933 1.8-.073.422-9.642 35.215-9.769 35.518-.12.286-.44.63-.768.823l-.284.167-43.895.012c-36.564.011-43.934 0-44.126-.07m92.269-19.151c2.648-9.617 4.797-17.505 4.774-17.53s-9.788-.04-21.703-.032l-21.662.016L50 50c-2.648 9.616-4.802 17.505-4.788 17.53.015.026 9.78.04 21.702.031l21.675-.015zM48.367 64.237c1.26-4.64 7.972-28.963 8.003-28.997.023-.026 8.77-.04 19.437-.03l19.396.015-.869 3.155-.868 3.155H70.38l-.694 2.54c-.382 1.396-.694 2.574-.693 2.616.001.061 2.009.077 9.828.077h9.826l-.042.17c-.023.092-.386 1.422-.807 2.954-.42 1.532-.765 2.8-.765 2.816 0 .018-4.44.032-9.868.032h-9.867l-1.664 6.048-1.664 6.049-7.887.016-7.887.015zM47.7 50.185c2.228-8.093 4.069-14.79 4.09-14.883l.038-.17H32.403c-11.112 0-19.439.023-19.458.054-.018.03-.409 1.422-.868 3.094s-.85 3.088-.867 3.147c-.03.103.545.108 11.484.108 10.278 0 11.517.01 11.517.094 0 .051-.305 1.2-.677 2.55a184 184 0 0 0-.677 2.492c0 .02-4.431.035-9.847.035-6.342 0-9.86.022-9.884.06-.043.07-1.632 5.83-1.632 5.916 0 .035 3.812.058 9.82.058 8.1 0 9.819.014 9.819.081 0 .045-.734 2.748-1.632 6.008s-1.631 5.965-1.631 6.013c0 .075 1.108.086 7.89.072l7.889-.016z" style="fill:#000;stroke-width:1.06982"/></svg>