<?xml version="1.0" encoding="UTF-8" standalone="no"?>
<svg version="1.1" x="0px" y="0px" viewBox="0 0 100 100" xml:space="preserve" width="100"
     height="100" xmlns="http://www.w3.org/2000/svg" xmlns:svg="http://www.w3.org/2000/svg">
    <defs id="defs31"/>
    <g id="g9" transform="scale(0.2 0.2) matrix(0.30700693,0,0,0.30700693,-191.76372,-184.60996) translate(-490,490)">
        <path d="m 1233.889,752.175 c 30.227,30.227 65.434,53.962 104.642,70.546 40.608,17.176 83.728,25.885 128.161,25.885 44.433,0 87.554,-8.709 128.162,-25.885 27.901,-11.801 53.762,-27.242 77.258,-46.048 21.594,24.61 59.714,68.054 97.332,110.926 54.791,62.444 108.508,123.663 108.508,123.663 22.368,25.824 63.53,25.885 85.894,0 20.812,-23.719 18.456,-59.818 -5.263,-80.631 0,0 -174.134,-152.794 -234.588,-205.84 18.806,-23.495 34.247,-49.357 46.048,-77.258 17.176,-40.608 25.885,-83.728 25.885,-128.162 0,-44.434 -8.709,-87.553 -25.885,-128.162 -16.584,-39.208 -40.318,-74.415 -70.546,-104.642 -30.227,-30.227 -65.434,-53.962 -104.642,-70.545 -40.608,-17.176 -83.729,-25.885 -128.162,-25.885 -44.433,0 -87.553,8.709 -128.161,25.885 -39.208,16.583 -74.415,40.319 -104.642,70.545 -30.228,30.227 -53.962,65.434 -70.546,104.642 -17.176,40.608 -25.885,83.728 -25.885,128.162 0,44.434 8.709,87.553 25.885,128.162 16.583,39.208 40.318,74.415 70.545,104.642 z m 41.153,-424.454 c 51.191,-51.192 119.254,-79.384 191.649,-79.384 72.396,0 140.459,28.192 191.65,79.384 51.192,51.191 79.385,119.254 79.385,191.65 0,72.396 -28.192,140.458 -79.385,191.65 -51.191,51.191 -119.255,79.384 -191.65,79.384 -72.395,0 -140.458,-28.193 -191.649,-79.384 -51.192,-51.192 -79.385,-119.254 -79.385,-191.65 0,-72.396 28.193,-140.458 79.385,-191.65 z"/>
    </g>
    <g id="Objects" transform="matrix(0.30700693,0,0,0.30700693,-191.76372,-184.60996)">

    </g>
</svg>
